<?xml version="1.0" encoding="UTF-8"?>
<!--Generator: Apple Native CoreSVG 123-->
<!DOCTYPE svg
PUBLIC "-//W3C//DTD SVG 1.1//EN"
       "http://www.w3.org/Graphics/SVG/1.1/DTD/svg11.dtd">
<svg version="1.1" xmlns="http://www.w3.org/2000/svg" xmlns:xlink="http://www.w3.org/1999/xlink" width="3300" height="2200">
 <!--glyph: "uni100126.medium", point size: 100.000000, font version: "Version 15.0d7e11", template writer version: "5"-->
 <g id="Notes">
  <rect height="2200" id="artboard" style="fill:white;opacity:1" width="3300" x="0" y="0"/>
  <line id="" style="fill:none;stroke:black;opacity:1;stroke-width:0.5;" x1="263" x2="3036" y1="292" y2="292"/>
  <text style="stroke:none;fill:black;font-family:-apple-system,&quot;SF Pro Display&quot;,&quot;SF Pro Text&quot;,Helvetica,sans-serif;font-weight:bold;" transform="matrix(1 0 0 1 263 322)">Weight/Scale Variations</text>
  <text style="stroke:none;fill:black;font-family:-apple-system,&quot;SF Pro Display&quot;,&quot;SF Pro Text&quot;,Helvetica,sans-serif;text-anchor:middle;" transform="matrix(1 0 0 1 559.711 322)">Ultralight</text>
  <text style="stroke:none;fill:black;font-family:-apple-system,&quot;SF Pro Display&quot;,&quot;SF Pro Text&quot;,Helvetica,sans-serif;text-anchor:middle;" transform="matrix(1 0 0 1 856.422 322)">Thin</text>
  <text style="stroke:none;fill:black;font-family:-apple-system,&quot;SF Pro Display&quot;,&quot;SF Pro Text&quot;,Helvetica,sans-serif;text-anchor:middle;" transform="matrix(1 0 0 1 1153.13 322)">Light</text>
  <text style="stroke:none;fill:black;font-family:-apple-system,&quot;SF Pro Display&quot;,&quot;SF Pro Text&quot;,Helvetica,sans-serif;text-anchor:middle;" transform="matrix(1 0 0 1 1449.84 322)">Regular</text>
  <text style="stroke:none;fill:black;font-family:-apple-system,&quot;SF Pro Display&quot;,&quot;SF Pro Text&quot;,Helvetica,sans-serif;text-anchor:middle;" transform="matrix(1 0 0 1 1746.56 322)">Medium</text>
  <text style="stroke:none;fill:black;font-family:-apple-system,&quot;SF Pro Display&quot;,&quot;SF Pro Text&quot;,Helvetica,sans-serif;text-anchor:middle;" transform="matrix(1 0 0 1 2043.27 322)">Semibold</text>
  <text style="stroke:none;fill:black;font-family:-apple-system,&quot;SF Pro Display&quot;,&quot;SF Pro Text&quot;,Helvetica,sans-serif;text-anchor:middle;" transform="matrix(1 0 0 1 2339.98 322)">Bold</text>
  <text style="stroke:none;fill:black;font-family:-apple-system,&quot;SF Pro Display&quot;,&quot;SF Pro Text&quot;,Helvetica,sans-serif;text-anchor:middle;" transform="matrix(1 0 0 1 2636.69 322)">Heavy</text>
  <text style="stroke:none;fill:black;font-family:-apple-system,&quot;SF Pro Display&quot;,&quot;SF Pro Text&quot;,Helvetica,sans-serif;text-anchor:middle;" transform="matrix(1 0 0 1 2933.4 322)">Black</text>
  <line id="" style="fill:none;stroke:black;opacity:1;stroke-width:0.5;" x1="263" x2="3036" y1="1903" y2="1903"/>
  <g id="" transform="matrix(1 0 0 1 263 1933)">
   <path d="M 9.24805 0.830078 C 13.5547 0.830078 17.1387 -2.74414 17.1387 -7.05078 C 17.1387 -11.3574 13.5449 -14.9316 9.23828 -14.9316 C 4.94141 -14.9316 1.36719 -11.3574 1.36719 -7.05078 C 1.36719 -2.74414 4.95117 0.830078 9.24805 0.830078 Z M 9.24805 -0.654297 C 5.70312 -0.654297 2.87109 -3.49609 2.87109 -7.05078 C 2.87109 -10.6055 5.69336 -13.4473 9.23828 -13.4473 C 12.793 -13.4473 15.6348 -10.6055 15.6445 -7.05078 C 15.6543 -3.49609 12.8027 -0.654297 9.24805 -0.654297 Z M 9.22852 -3.42773 C 9.69727 -3.42773 9.9707 -3.74023 9.9707 -4.25781 L 9.9707 -6.31836 L 12.1973 -6.31836 C 12.6953 -6.31836 13.0371 -6.57227 13.0371 -7.04102 C 13.0371 -7.51953 12.7148 -7.7832 12.1973 -7.7832 L 9.9707 -7.7832 L 9.9707 -10.0098 C 9.9707 -10.5273 9.69727 -10.8496 9.22852 -10.8496 C 8.75977 -10.8496 8.50586 -10.5078 8.50586 -10.0098 L 8.50586 -7.7832 L 6.29883 -7.7832 C 5.78125 -7.7832 5.44922 -7.51953 5.44922 -7.04102 C 5.44922 -6.57227 5.80078 -6.31836 6.29883 -6.31836 L 8.50586 -6.31836 L 8.50586 -4.25781 C 8.50586 -3.75977 8.75977 -3.42773 9.22852 -3.42773 Z"/>
  </g>
  <g id="" transform="matrix(1 0 0 1 281.506 1933)">
   <path d="M 11.709 2.91016 C 17.1582 2.91016 21.6699 -1.60156 21.6699 -7.05078 C 21.6699 -12.4902 17.1484 -17.0117 11.6992 -17.0117 C 6.25977 -17.0117 1.74805 -12.4902 1.74805 -7.05078 C 1.74805 -1.60156 6.26953 2.91016 11.709 2.91016 Z M 11.709 1.25 C 7.09961 1.25 3.41797 -2.44141 3.41797 -7.05078 C 3.41797 -11.6504 7.08984 -15.3516 11.6992 -15.3516 C 16.3086 -15.3516 20 -11.6504 20.0098 -7.05078 C 20.0195 -2.44141 16.3184 1.25 11.709 1.25 Z M 11.6895 -2.41211 C 12.207 -2.41211 12.5195 -2.77344 12.5195 -3.33984 L 12.5195 -6.23047 L 15.5762 -6.23047 C 16.123 -6.23047 16.5039 -6.51367 16.5039 -7.03125 C 16.5039 -7.55859 16.1426 -7.86133 15.5762 -7.86133 L 12.5195 -7.86133 L 12.5195 -10.9277 C 12.5195 -11.5039 12.207 -11.8555 11.6895 -11.8555 C 11.1719 -11.8555 10.8789 -11.4844 10.8789 -10.9277 L 10.8789 -7.86133 L 7.83203 -7.86133 C 7.26562 -7.86133 6.89453 -7.55859 6.89453 -7.03125 C 6.89453 -6.51367 7.28516 -6.23047 7.83203 -6.23047 L 10.8789 -6.23047 L 10.8789 -3.33984 C 10.8789 -2.79297 11.1719 -2.41211 11.6895 -2.41211 Z"/>
  </g>
  <g id="" transform="matrix(1 0 0 1 304.924 1933)">
   <path d="M 14.9707 5.67383 C 21.9336 5.67383 27.6953 -0.078125 27.6953 -7.04102 C 27.6953 -14.0039 21.9238 -19.7559 14.9609 -19.7559 C 8.00781 -19.7559 2.25586 -14.0039 2.25586 -7.04102 C 2.25586 -0.078125 8.01758 5.67383 14.9707 5.67383 Z M 14.9707 3.85742 C 8.93555 3.85742 4.08203 -1.00586 4.08203 -7.04102 C 4.08203 -13.0762 8.92578 -17.9395 14.9609 -17.9395 C 21.0059 -17.9395 25.8594 -13.0762 25.8691 -7.04102 C 25.8789 -1.00586 21.0156 3.85742 14.9707 3.85742 Z M 14.9512 -1.06445 C 15.5176 -1.06445 15.8691 -1.45508 15.8691 -2.06055 L 15.8691 -6.13281 L 20.1074 -6.13281 C 20.6934 -6.13281 21.1133 -6.46484 21.1133 -7.02148 C 21.1133 -7.59766 20.7227 -7.93945 20.1074 -7.93945 L 15.8691 -7.93945 L 15.8691 -12.1875 C 15.8691 -12.8027 15.5176 -13.1934 14.9512 -13.1934 C 14.3848 -13.1934 14.0625 -12.7832 14.0625 -12.1875 L 14.0625 -7.93945 L 9.83398 -7.93945 C 9.21875 -7.93945 8.80859 -7.59766 8.80859 -7.02148 C 8.80859 -6.46484 9.23828 -6.13281 9.83398 -6.13281 L 14.0625 -6.13281 L 14.0625 -2.06055 C 14.0625 -1.47461 14.3848 -1.06445 14.9512 -1.06445 Z"/>
  </g>
  <text style="stroke:none;fill:black;font-family:-apple-system,&quot;SF Pro Display&quot;,&quot;SF Pro Text&quot;,Helvetica,sans-serif;font-weight:bold;" transform="matrix(1 0 0 1 263 1953)">Design Variations</text>
  <text style="stroke:none;fill:black;font-family:-apple-system,&quot;SF Pro Display&quot;,&quot;SF Pro Text&quot;,Helvetica,sans-serif;" transform="matrix(1 0 0 1 263 1971)">Symbols are supported in up to nine weights and three scales.</text>
  <text style="stroke:none;fill:black;font-family:-apple-system,&quot;SF Pro Display&quot;,&quot;SF Pro Text&quot;,Helvetica,sans-serif;" transform="matrix(1 0 0 1 263 1989)">For optimal layout with text and other symbols, vertically align</text>
  <text style="stroke:none;fill:black;font-family:-apple-system,&quot;SF Pro Display&quot;,&quot;SF Pro Text&quot;,Helvetica,sans-serif;" transform="matrix(1 0 0 1 263 2007)">symbols with the adjacent text.</text>
  <rect height="14" id="" style="fill:#00AEEF;stroke:none;opacity:0.4;" width="3" x="776" y="1919"/>
  <g id="" transform="matrix(1 0 0 1 779 1933)">
   <path d="M 10.5273 0 L 12.373 0 L 7.17773 -14.0918 L 5.43945 -14.0918 L 0.244141 0 L 2.08984 0 L 3.50586 -4.0332 L 9.11133 -4.0332 Z M 6.2793 -11.9531 L 6.33789 -11.9531 L 8.59375 -5.52734 L 4.02344 -5.52734 Z"/>
  </g>
  <rect height="14" id="" style="fill:#00AEEF;stroke:none;opacity:0.4;" width="3" x="791.617" y="1919"/>
  <text style="stroke:none;fill:black;font-family:-apple-system,&quot;SF Pro Display&quot;,&quot;SF Pro Text&quot;,Helvetica,sans-serif;font-weight:bold;" transform="matrix(1 0 0 1 776 1953)">Margins</text>
  <text style="stroke:none;fill:black;font-family:-apple-system,&quot;SF Pro Display&quot;,&quot;SF Pro Text&quot;,Helvetica,sans-serif;" transform="matrix(1 0 0 1 776 1971)">Leading and trailing margins on the left and right side of each symbol</text>
  <text style="stroke:none;fill:black;font-family:-apple-system,&quot;SF Pro Display&quot;,&quot;SF Pro Text&quot;,Helvetica,sans-serif;" transform="matrix(1 0 0 1 776 1989)">can be adjusted by modifying the width of the blue rectangles.</text>
  <text style="stroke:none;fill:black;font-family:-apple-system,&quot;SF Pro Display&quot;,&quot;SF Pro Text&quot;,Helvetica,sans-serif;" transform="matrix(1 0 0 1 776 2007)">Modifications are automatically applied proportionally to all</text>
  <text style="stroke:none;fill:black;font-family:-apple-system,&quot;SF Pro Display&quot;,&quot;SF Pro Text&quot;,Helvetica,sans-serif;" transform="matrix(1 0 0 1 776 2025)">scales and weights.</text>
  <g id="" transform="matrix(1 0 0 1 1289 1933)">
   <path d="M 2.83203 3.11523 L 4.375 4.6582 C 5.22461 5.48828 6.19141 5.41992 7.06055 4.46289 L 17.2754 -6.66016 C 17.7051 -6.36719 18.0957 -6.37695 18.5645 -6.47461 L 19.6094 -6.68945 L 20.3027 -5.99609 L 20.2539 -5.47852 C 20.1855 -4.95117 20.3516 -4.53125 20.8496 -4.0332 L 21.6602 -3.22266 C 22.168 -2.71484 22.8223 -2.68555 23.3008 -3.16406 L 26.5527 -6.41602 C 27.0312 -6.89453 27.0117 -7.54883 26.5039 -8.05664 L 25.6836 -8.87695 C 25.1855 -9.375 24.7754 -9.55078 24.2383 -9.47266 L 23.7109 -9.41406 L 23.0566 -10.0781 L 23.3398 -11.2207 C 23.4863 -11.7871 23.3398 -12.2559 22.7148 -12.8613 L 20.3027 -15.2539 C 16.7578 -18.7793 12.2266 -18.6719 9.11133 -15.5371 C 8.69141 -15.1074 8.64258 -14.5215 8.91602 -14.0918 C 9.15039 -13.7207 9.62891 -13.4961 10.2734 -13.6621 C 11.7871 -14.043 13.3008 -13.9258 14.7852 -12.9199 L 14.1602 -11.3379 C 13.9258 -10.752 13.9453 -10.2734 14.1797 -9.83398 L 3.01758 0.439453 C 2.08008 1.30859 1.97266 2.25586 2.83203 3.11523 Z M 10.6738 -15.1465 C 13.3398 -17.1387 16.6504 -16.8262 19.0527 -14.4141 L 21.6797 -11.8066 C 21.9141 -11.5723 21.9434 -11.3867 21.8848 -11.0938 L 21.5039 -9.53125 L 23.0762 -7.95898 L 24.043 -8.04688 C 24.3262 -8.07617 24.4141 -8.05664 24.6387 -7.83203 L 25.2637 -7.20703 L 22.5098 -4.46289 L 21.8848 -5.07812 C 21.6602 -5.30273 21.6406 -5.40039 21.6699 -5.68359 L 21.7578 -6.64062 L 20.1953 -8.20312 L 18.5742 -7.89062 C 18.291 -7.83203 18.1445 -7.83203 17.9102 -8.07617 L 15.7324 -10.2539 C 15.5078 -10.4883 15.4785 -10.625 15.6055 -10.9473 L 16.5527 -13.2227 C 14.9512 -14.7559 12.8418 -15.6055 10.8008 -14.9512 C 10.7129 -14.9219 10.6445 -14.9414 10.6152 -14.9805 C 10.5859 -15.0293 10.5859 -15.0781 10.6738 -15.1465 Z M 4.10156 2.41211 C 3.61328 1.91406 3.78906 1.61133 4.12109 1.30859 L 15.0781 -8.80859 L 16.3086 -7.57812 L 6.15234 3.34961 C 5.84961 3.68164 5.46875 3.7793 5.06836 3.37891 Z"/>
  </g>
  <text style="stroke:none;fill:black;font-family:-apple-system,&quot;SF Pro Display&quot;,&quot;SF Pro Text&quot;,Helvetica,sans-serif;font-weight:bold;" transform="matrix(1 0 0 1 1289 1953)">Exporting</text>
  <text style="stroke:none;fill:black;font-family:-apple-system,&quot;SF Pro Display&quot;,&quot;SF Pro Text&quot;,Helvetica,sans-serif;" transform="matrix(1 0 0 1 1289 1971)">Symbols should be outlined when exporting to ensure the</text>
  <text style="stroke:none;fill:black;font-family:-apple-system,&quot;SF Pro Display&quot;,&quot;SF Pro Text&quot;,Helvetica,sans-serif;" transform="matrix(1 0 0 1 1289 1989)">design is preserved when submitting to Xcode.</text>
  <text id="template-version" style="stroke:none;fill:black;font-family:-apple-system,&quot;SF Pro Display&quot;,&quot;SF Pro Text&quot;,Helvetica,sans-serif;text-anchor:end;" transform="matrix(1 0 0 1 3036 1933)">Template v.1.0</text>
  <text style="stroke:none;fill:black;font-family:-apple-system,&quot;SF Pro Display&quot;,&quot;SF Pro Text&quot;,Helvetica,sans-serif;text-anchor:end;" transform="matrix(1 0 0 1 3036 1951)">Generated from arrowtriangle.left.fill</text>
  <text style="stroke:none;fill:black;font-family:-apple-system,&quot;SF Pro Display&quot;,&quot;SF Pro Text&quot;,Helvetica,sans-serif;text-anchor:end;" transform="matrix(1 0 0 1 3036 1969)">Typeset at 100 points</text>
  <text style="stroke:none;fill:black;font-family:-apple-system,&quot;SF Pro Display&quot;,&quot;SF Pro Text&quot;,Helvetica,sans-serif;" transform="matrix(1 0 0 1 263 726)">Small</text>
  <text style="stroke:none;fill:black;font-family:-apple-system,&quot;SF Pro Display&quot;,&quot;SF Pro Text&quot;,Helvetica,sans-serif;" transform="matrix(1 0 0 1 263 1156)">Medium</text>
  <text style="stroke:none;fill:black;font-family:-apple-system,&quot;SF Pro Display&quot;,&quot;SF Pro Text&quot;,Helvetica,sans-serif;" transform="matrix(1 0 0 1 263 1586)">Large</text>
 </g>
 <g id="Guides">
  <g id="H-reference" style="fill:#27AAE1;stroke:none;" transform="matrix(1 0 0 1 339 696)">
   <path d="M 54.9316 0 L 57.666 0 L 30.5664 -70.459 L 28.0762 -70.459 L 0.976562 0 L 3.66211 0 L 12.9395 -24.4629 L 45.7031 -24.4629 Z M 29.1992 -67.0898 L 29.4434 -67.0898 L 44.8242 -26.709 L 13.8184 -26.709 Z"/>
  </g>
  <line id="Baseline-S" style="fill:none;stroke:#27AAE1;opacity:1;stroke-width:0.577;" x1="263" x2="3036" y1="696" y2="696"/>
  <line id="Capline-S" style="fill:none;stroke:#27AAE1;opacity:1;stroke-width:0.577;" x1="263" x2="3036" y1="625.541" y2="625.541"/>
  <g id="H-reference" style="fill:#27AAE1;stroke:none;" transform="matrix(1 0 0 1 339 1126)">
   <path d="M 54.9316 0 L 57.666 0 L 30.5664 -70.459 L 28.0762 -70.459 L 0.976562 0 L 3.66211 0 L 12.9395 -24.4629 L 45.7031 -24.4629 Z M 29.1992 -67.0898 L 29.4434 -67.0898 L 44.8242 -26.709 L 13.8184 -26.709 Z"/>
  </g>
  <line id="Baseline-M" style="fill:none;stroke:#27AAE1;opacity:1;stroke-width:0.577;" x1="263" x2="3036" y1="1126" y2="1126"/>
  <line id="Capline-M" style="fill:none;stroke:#27AAE1;opacity:1;stroke-width:0.577;" x1="263" x2="3036" y1="1055.54" y2="1055.54"/>
  <g id="H-reference" style="fill:#27AAE1;stroke:none;" transform="matrix(1 0 0 1 339 1556)">
   <path d="M 54.9316 0 L 57.666 0 L 30.5664 -70.459 L 28.0762 -70.459 L 0.976562 0 L 3.66211 0 L 12.9395 -24.4629 L 45.7031 -24.4629 Z M 29.1992 -67.0898 L 29.4434 -67.0898 L 44.8242 -26.709 L 13.8184 -26.709 Z"/>
  </g>
  <line id="Baseline-L" style="fill:none;stroke:#27AAE1;opacity:1;stroke-width:0.577;" x1="263" x2="3036" y1="1556" y2="1556"/>
  <line id="Capline-L" style="fill:none;stroke:#27AAE1;opacity:1;stroke-width:0.577;" x1="263" x2="3036" y1="1485.54" y2="1485.54"/>
  <rect height="119.336" id="left-margin" style="fill:#00AEEF;stroke:none;opacity:0.4;" width="9.96094" x="1398.82" y="1030.79"/>
  <rect height="119.336" id="right-margin" style="fill:#00AEEF;stroke:none;opacity:0.4;" width="12.4512" x="1488.42" y="1030.79"/>
 </g>
 <g id="Symbols">
  <g id="Black-L" transform="matrix(1 0 0 1 2865.72 1556)">
   <path d="M 106.982 -86.9141 C 103.809 -86.9141 101.025 -85.6934 96.9238 -83.6914 L 22.8516 -48.291 C 16.3086 -45.166 12.8906 -40.8691 12.8906 -35.2051 C 12.8906 -29.4922 16.3086 -25.1953 22.8516 -22.0703 L 96.9238 13.3301 C 101.074 15.2832 103.809 16.5039 106.982 16.5039 C 113.525 16.5039 119.287 11.5234 119.287 2.92969 L 119.287 -73.3398 C 119.287 -81.8848 113.477 -86.9141 106.982 -86.9141 Z"/>
  </g>
  <g id="Heavy-L" transform="matrix(1 0 0 1 2569.48 1556)">
   <path d="M 107.324 -86.4746 C 104.346 -86.4746 101.855 -85.3027 98.1445 -83.4961 L 21.9727 -46.9727 C 15.8691 -44.043 12.8906 -40.2344 12.8906 -35.2051 C 12.8906 -30.127 15.8691 -26.3184 21.9727 -23.3887 L 98.1445 13.1348 C 101.904 14.8926 104.395 16.0645 107.373 16.0645 C 113.33 16.0645 118.359 11.5234 118.359 3.75977 L 118.359 -74.1699 C 118.359 -81.8848 113.33 -86.4746 107.324 -86.4746 Z"/>
  </g>
  <g id="Bold-L" transform="matrix(1 0 0 1 2273.28 1556)">
   <path d="M 107.764 -85.9863 C 105.029 -85.9863 102.783 -84.8633 99.4629 -83.3008 L 20.9961 -45.5078 C 15.3809 -42.8223 12.8906 -39.5508 12.8906 -35.2051 C 12.8906 -30.8105 15.3809 -27.5879 20.9961 -24.8535 L 99.4629 12.8906 C 102.783 14.502 105.078 15.5762 107.764 15.5762 C 113.135 15.5762 117.334 11.4746 117.334 4.73633 L 117.334 -75.0977 C 117.334 -81.8848 113.086 -85.9863 107.764 -85.9863 Z"/>
  </g>
  <g id="Semibold-L" transform="matrix(1 0 0 1 1976.93 1556)">
   <path d="M 108.057 -85.6445 C 105.469 -85.6445 103.369 -84.5703 100.439 -83.1543 L 20.3613 -44.5312 C 15.0391 -41.9434 12.8906 -39.0625 12.8906 -35.2051 C 12.8906 -31.2988 15.0391 -28.418 20.3613 -25.8789 L 100.439 12.7441 C 103.418 14.209 105.518 15.2832 108.057 15.2832 C 112.988 15.2832 116.602 11.4746 116.602 5.37109 L 116.602 -75.7324 C 116.602 -81.8848 112.988 -85.6445 108.057 -85.6445 Z"/>
  </g>
  <g id="Medium-L" transform="matrix(1 0 0 1 1680.49 1556)">
   <path d="M 108.252 -85.4004 C 105.811 -85.4004 103.857 -84.375 101.123 -83.0078 L 19.8242 -43.75 C 14.7949 -41.3086 12.8906 -38.7207 12.8906 -35.2051 C 12.8906 -31.6895 14.7949 -29.1016 19.8242 -26.6113 L 101.123 12.6465 C 103.906 13.9648 105.859 14.9902 108.301 14.9902 C 112.891 14.9902 116.064 11.4746 116.064 5.85938 L 116.064 -76.2207 C 116.064 -81.8848 112.891 -85.4004 108.252 -85.4004 Z"/>
  </g>
  <g id="Regular-L" transform="matrix(1 0 0 1 1384.12 1556)">
   <path d="M 108.545 -85.0586 C 106.25 -85.0586 104.492 -84.082 102.051 -82.8613 L 19.1895 -42.7734 C 14.4531 -40.4297 12.8906 -38.2324 12.8906 -35.2051 C 12.8906 -32.1289 14.4531 -29.9316 19.1895 -27.6367 L 102.051 12.5 C 104.541 13.7207 106.299 14.6973 108.594 14.6973 C 112.793 14.6973 115.381 11.4746 115.381 6.49414 L 115.381 -76.8555 C 115.381 -81.8848 112.744 -85.0586 108.545 -85.0586 Z"/>
  </g>
  <g id="Light-L" transform="matrix(1 0 0 1 1087.58 1556)">
   <path d="M 109.18 -84.7168 C 107.275 -84.7168 105.811 -83.9355 103.662 -82.8613 L 18.1152 -41.6016 C 14.3555 -39.7461 12.8906 -37.8418 12.8906 -35.2051 C 12.8906 -32.5195 14.3555 -30.6152 18.1152 -28.7598 L 103.662 12.5 C 105.859 13.5742 107.275 14.3555 109.229 14.3555 C 112.793 14.3555 115.039 11.6699 115.039 7.32422 L 115.039 -77.6855 C 115.039 -82.0312 112.744 -84.7168 109.18 -84.7168 Z"/>
  </g>
  <g id="Thin-L" transform="matrix(1 0 0 1 791.066 1556)">
   <path d="M 110.01 -84.2773 C 108.594 -84.2773 107.617 -83.7402 105.811 -82.8613 L 16.748 -40.0879 C 14.209 -38.8184 12.8906 -37.3535 12.8906 -35.2051 C 12.8906 -33.0566 14.209 -31.543 16.748 -30.2734 L 105.811 12.5 C 107.617 13.3789 108.643 13.916 110.059 13.916 C 112.842 13.916 114.648 11.8652 114.648 8.44727 L 114.648 -78.8086 C 114.648 -82.2754 112.793 -84.2773 110.01 -84.2773 Z"/>
  </g>
  <g id="Ultralight-L" transform="matrix(1 0 0 1 494.452 1556)">
   <path d="M 110.449 -84.0332 C 109.277 -84.0332 108.545 -83.6426 106.934 -82.8613 L 16.0645 -39.3066 C 14.1113 -38.3301 12.8906 -37.0605 12.8906 -35.2051 C 12.8906 -33.3008 14.1113 -32.0312 16.0645 -31.0547 L 106.934 12.5 C 108.496 13.2324 109.277 13.6719 110.449 13.6719 C 112.842 13.6719 114.404 12.0117 114.404 8.98438 L 114.404 -79.3945 C 114.404 -82.373 112.842 -84.0332 110.449 -84.0332 Z"/>
  </g>
  <g id="Black-M" transform="matrix(1 0 0 1 2880.42 1126)">
   <path d="M 82.7637 -75.6836 C 80.1758 -75.6836 77.9297 -74.7559 74.3652 -73.0469 L 18.3105 -46.5332 C 13.1836 -44.0918 9.96094 -40.2344 9.96094 -35.2051 C 9.96094 -30.1758 13.1836 -26.3184 18.3105 -23.877 L 74.3652 2.63672 C 77.9297 4.3457 80.1758 5.27344 82.7637 5.27344 C 88.2324 5.27344 93.5059 1.07422 93.5059 -6.34766 L 93.5059 -64.0625 C 93.5059 -71.4844 88.2324 -75.6836 82.7637 -75.6836 Z"/>
  </g>
  <g id="Heavy-M" transform="matrix(1 0 0 1 2584.17 1126)">
   <path d="M 83.0078 -75.293 C 80.5664 -75.293 78.4668 -74.3652 75.2441 -72.8516 L 17.627 -45.3613 C 12.7441 -43.0176 9.96094 -39.6484 9.96094 -35.2051 C 9.96094 -30.7617 12.7441 -27.3438 17.627 -25 L 75.2441 2.44141 C 78.4668 3.95508 80.5664 4.88281 83.0078 4.88281 C 88.0371 4.88281 92.5781 1.02539 92.5781 -5.61523 L 92.5781 -64.7461 C 92.5781 -71.4355 87.9883 -75.293 83.0078 -75.293 Z"/>
  </g>
  <g id="Bold-M" transform="matrix(1 0 0 1 2287.98 1126)">
   <path d="M 83.252 -74.8535 C 80.957 -74.8535 79.0527 -73.9746 76.2695 -72.6074 L 16.8945 -44.0918 C 12.207 -41.8945 9.96094 -39.0137 9.96094 -35.2051 C 9.96094 -31.3965 12.207 -28.5156 16.8945 -26.2695 L 76.2695 2.19727 C 79.1016 3.56445 81.0059 4.44336 83.252 4.44336 C 87.793 4.44336 91.5527 0.976562 91.5527 -4.83398 L 91.5527 -65.5273 C 91.5527 -71.3867 87.793 -74.8535 83.252 -74.8535 Z"/>
  </g>
  <g id="Semibold-M" transform="matrix(1 0 0 1 1991.63 1126)">
   <path d="M 83.4473 -74.5605 C 81.25 -74.5605 79.4922 -73.6816 76.9531 -72.4609 L 16.3574 -43.2617 C 11.8652 -41.0645 9.96094 -38.5742 9.96094 -35.2051 C 9.96094 -31.8359 11.8652 -29.3457 16.3574 -27.1484 L 76.9531 2.05078 C 79.4922 3.27148 81.2988 4.15039 83.4473 4.15039 C 87.6465 4.15039 90.8203 0.927734 90.8203 -4.29688 L 90.8203 -66.0645 C 90.8203 -71.3379 87.5977 -74.5605 83.4473 -74.5605 Z"/>
  </g>
  <g id="Medium-M" transform="matrix(1 0 0 1 1695.19 1126)">
   <path d="M 83.5449 -74.3164 C 81.4941 -74.3164 79.7852 -73.4375 77.4902 -72.3145 L 15.9668 -42.5781 C 11.6211 -40.4785 9.96094 -38.2324 9.96094 -35.2051 C 9.96094 -32.1777 11.6211 -29.9316 15.9668 -27.832 L 77.4902 1.9043 C 79.834 3.07617 81.543 3.95508 83.5938 3.95508 C 87.5488 3.95508 90.2832 0.927734 90.2832 -3.90625 L 90.2832 -66.5039 C 90.2832 -71.3379 87.5 -74.3164 83.5449 -74.3164 Z"/>
  </g>
  <g id="Regular-M" transform="matrix(1 0 0 1 1398.82 1126)">
   <path d="M 83.7402 -74.0234 C 81.7871 -74.0234 80.2246 -73.1934 78.1738 -72.168 L 15.4297 -41.6992 C 11.2793 -39.6484 9.96094 -37.793 9.96094 -35.2051 C 9.96094 -32.6172 11.2793 -30.7129 15.4297 -28.6621 L 78.1738 1.75781 C 80.2734 2.7832 81.8359 3.61328 83.7891 3.61328 C 87.4023 3.61328 89.5996 0.878906 89.5996 -3.36914 L 89.5996 -67.041 C 89.5996 -71.2891 87.3535 -74.0234 83.7402 -74.0234 Z"/>
  </g>
  <g id="Light-M" transform="matrix(1 0 0 1 1102.25 1126)">
   <path d="M 84.3262 -73.7305 C 82.666 -73.7305 81.3965 -73.0469 79.6387 -72.168 L 14.502 -40.6738 C 11.1816 -39.0625 9.96094 -37.4512 9.96094 -35.2051 C 9.96094 -32.959 11.1816 -31.3477 14.502 -29.6875 L 79.6387 1.75781 C 81.4453 2.63672 82.7148 3.32031 84.375 3.32031 C 87.4023 3.32031 89.3066 1.02539 89.3066 -2.63672 L 89.3066 -67.7734 C 89.3066 -71.4355 87.3535 -73.7305 84.3262 -73.7305 Z"/>
  </g>
  <g id="Thin-M" transform="matrix(1 0 0 1 805.739 1126)">
   <path d="M 85.1074 -73.3398 C 83.8867 -73.3398 83.0078 -72.8516 81.543 -72.168 L 13.2812 -39.3066 C 11.0352 -38.1836 9.96094 -36.9629 9.96094 -35.2051 C 9.96094 -33.4473 11.0352 -32.1777 13.2812 -31.0547 L 81.543 1.75781 C 83.0078 2.44141 83.8867 2.92969 85.1074 2.92969 C 87.4512 2.92969 88.916 1.2207 88.916 -1.61133 L 88.916 -68.75 C 88.916 -71.6309 87.4023 -73.3398 85.1074 -73.3398 Z"/>
  </g>
  <g id="Ultralight-M" transform="matrix(1 0 0 1 509.101 1126)">
   <path d="M 85.498 -73.1445 C 84.5215 -73.1445 83.8379 -72.7539 82.5195 -72.168 L 12.6465 -38.623 C 10.9863 -37.793 9.96094 -36.7188 9.96094 -35.2051 C 9.96094 -33.6426 10.9863 -32.6172 12.6465 -31.7871 L 82.5195 1.75781 C 83.8379 2.39258 84.5215 2.73438 85.498 2.73438 C 87.4512 2.73438 88.7207 1.31836 88.7207 -1.12305 L 88.7207 -69.2871 C 88.7207 -71.7285 87.4512 -73.1445 85.498 -73.1445 Z"/>
  </g>
  <g id="Black-S" transform="matrix(1 0 0 1 2891.92 696)">
   <path d="M 64.8438 -66.8945 C 62.8418 -66.8945 61.084 -66.1621 58.3008 -64.8438 L 14.3066 -43.9941 C 10.3027 -42.0898 7.8125 -39.1113 7.8125 -35.2051 C 7.8125 -31.2988 10.3027 -28.3203 14.3066 -26.416 L 58.3008 -5.56641 C 61.084 -4.24805 62.8418 -3.51562 64.8438 -3.51562 C 69.0918 -3.51562 73.1934 -6.78711 73.1934 -12.5488 L 73.1934 -57.8613 C 73.1934 -63.623 69.0918 -66.8945 64.8438 -66.8945 Z"/>
  </g>
  <g id="Heavy-S" transform="matrix(1 0 0 1 2595.55 696)">
   <path d="M 64.9414 -66.6504 C 63.0371 -66.6504 61.377 -65.8691 58.8379 -64.6973 L 13.916 -43.2617 C 9.96094 -41.3574 7.8125 -38.7207 7.8125 -35.2051 C 7.8125 -31.6895 9.96094 -29.0527 13.916 -27.1484 L 58.8379 -5.71289 C 61.377 -4.54102 63.0371 -3.75977 64.9902 -3.75977 C 68.9453 -3.75977 72.5098 -6.83594 72.5098 -12.1094 L 72.5098 -58.3008 C 72.5098 -63.5742 68.9453 -66.6504 64.9414 -66.6504 Z"/>
  </g>
  <g id="Bold-S" transform="matrix(1 0 0 1 2299.21 696)">
   <path d="M 65.0879 -66.3574 C 63.2324 -66.3574 61.6699 -65.5762 59.4238 -64.502 L 13.4277 -42.3828 C 9.57031 -40.5762 7.8125 -38.2324 7.8125 -35.2051 C 7.8125 -32.1777 9.57031 -29.8828 13.4277 -28.0273 L 59.4238 -5.9082 C 61.6699 -4.83398 63.2324 -4.05273 65.0879 -4.05273 C 68.7988 -4.05273 71.7773 -6.88477 71.7773 -11.5723 L 71.7773 -58.8379 C 71.7773 -63.5254 68.75 -66.3574 65.0879 -66.3574 Z"/>
  </g>
  <g id="Semibold-S" transform="matrix(1 0 0 1 2002.76 696)">
   <path d="M 65.1855 -66.1133 C 63.3789 -66.1133 61.8652 -65.3809 59.8145 -64.3555 L 13.0859 -41.7969 C 9.32617 -39.9902 7.8125 -37.9395 7.8125 -35.2051 C 7.8125 -32.4707 9.32617 -30.4199 13.0859 -28.6133 L 59.8145 -6.05469 C 61.9141 -5.0293 63.3789 -4.29688 65.1855 -4.29688 C 68.6523 -4.29688 71.2402 -6.93359 71.2402 -11.2305 L 71.2402 -59.1797 C 71.2402 -63.4766 68.6523 -66.1133 65.1855 -66.1133 Z"/>
  </g>
  <g id="Medium-S" transform="matrix(1 0 0 1 1706.25 696)">
   <path d="M 65.2344 -65.9668 C 63.4766 -65.9668 62.0605 -65.2344 60.1074 -64.3066 L 12.8906 -41.3574 C 9.13086 -39.5508 7.8125 -37.6953 7.8125 -35.2051 C 7.8125 -32.7148 9.13086 -30.8594 12.8906 -29.0527 L 60.1074 -6.10352 C 62.0605 -5.17578 63.5254 -4.44336 65.2832 -4.44336 C 68.5547 -4.44336 70.8496 -6.98242 70.8496 -10.9863 L 70.8496 -59.4238 C 70.8496 -63.4277 68.5547 -65.9668 65.2344 -65.9668 Z"/>
  </g>
  <g id="Regular-S" transform="matrix(1 0 0 1 1409.81 696)">
   <path d="M 65.332 -65.7715 C 63.623 -65.7715 62.2559 -65.0391 60.5469 -64.1602 L 12.5488 -40.8203 C 8.88672 -39.0137 7.8125 -37.4023 7.8125 -35.2051 C 7.8125 -33.0078 8.88672 -31.3965 12.5488 -29.5898 L 60.5469 -6.25 C 62.3047 -5.37109 63.6719 -4.63867 65.3809 -4.63867 C 68.457 -4.63867 70.3125 -7.03125 70.3125 -10.6445 L 70.3125 -59.7656 C 70.3125 -63.3789 68.4082 -65.7715 65.332 -65.7715 Z"/>
  </g>
  <g id="Light-S" transform="matrix(1 0 0 1 1113.22 696)">
   <path d="M 65.8203 -65.5273 C 64.4043 -65.5273 63.3301 -64.8926 61.8164 -64.1602 L 11.7188 -39.8926 C 8.78906 -38.4766 7.8125 -37.1094 7.8125 -35.2051 C 7.8125 -33.3008 8.78906 -31.9336 11.7188 -30.5176 L 61.8164 -6.25 C 63.3301 -5.51758 64.4531 -4.88281 65.8691 -4.88281 C 68.457 -4.88281 70.0684 -6.88477 70.0684 -9.96094 L 70.0684 -60.4492 C 70.0684 -63.5254 68.457 -65.5273 65.8203 -65.5273 Z"/>
  </g>
  <g id="Thin-S" transform="matrix(1 0 0 1 816.676 696)">
   <path d="M 66.5039 -65.1855 C 65.4785 -65.1855 64.7461 -64.7461 63.5254 -64.1602 L 10.6445 -38.7207 C 8.69141 -37.7441 7.8125 -36.6699 7.8125 -35.2051 C 7.8125 -33.7402 8.69141 -32.666 10.6445 -31.6895 L 63.5254 -6.25 C 64.7461 -5.66406 65.4785 -5.22461 66.5039 -5.22461 C 68.5059 -5.22461 69.7266 -6.68945 69.7266 -9.08203 L 69.7266 -61.3281 C 69.7266 -63.7207 68.457 -65.1855 66.5039 -65.1855 Z"/>
  </g>
  <g id="Ultralight-S" transform="matrix(1 0 0 1 520.038 696)">
   <path d="M 66.8457 -64.9902 C 66.0156 -64.9902 65.4785 -64.6484 64.4043 -64.1602 L 10.1074 -38.0859 C 8.59375 -37.3535 7.8125 -36.4746 7.8125 -35.2051 C 7.8125 -33.9355 8.59375 -33.0566 10.1074 -32.3242 L 64.4043 -6.25 C 65.4785 -5.76172 66.0156 -5.41992 66.8457 -5.41992 C 68.5059 -5.41992 69.5801 -6.5918 69.5801 -8.64258 L 69.5801 -61.7676 C 69.5801 -63.8184 68.5059 -64.9902 66.8457 -64.9902 Z"/>
  </g>
 </g>
</svg>
